<svg width="373" height="48" viewBox="0 0 373 48" fill="none" xmlns="http://www.w3.org/2000/svg">
<g clip-path="url(#clip0_399_3699)">
<path fill-rule="evenodd" clip-rule="evenodd" d="M47.3693 0.148438H1.70508V46.5736H47.3684V30.368H39.7902C37.1779 36.2799 31.2981 40.3974 24.5691 40.3974C15.2925 40.3974 7.78002 32.694 7.78002 23.3285C7.78002 13.9632 15.2925 6.32554 24.5691 6.32554C31.4285 6.32554 37.3084 10.5765 39.9217 16.6201H47.3693V0.148438ZM91.5917 30.3671C88.9137 36.2788 83.0992 40.3962 76.3058 40.3965C67.2901 40.3965 59.9082 33.0907 59.5816 23.9915H99.1699V0.148438H53.5056V46.5725H99.1699V30.3671H91.5917ZM92.177 18.2801H60.2972C62.3222 10.6424 69.0502 6.32561 76.3019 6.32561C83.5534 6.32561 89.8255 10.3763 92.177 18.2801ZM197.777 23.3276C197.777 32.7588 190.329 40.3965 181.052 40.3965C171.841 40.3965 164.328 32.6929 164.328 23.3276C164.328 13.9623 171.776 6.3246 181.052 6.3246C190.329 6.3246 197.777 13.8964 197.777 23.3276ZM203.916 0.148438H158.253V46.5736H203.916V0.148438ZM144.965 30.3671H152.543V46.5725H105.246V0.148438H112.955V23.3276C112.955 33.6889 120.533 40.3305 129.548 40.3305C136.538 40.3305 142.678 36.4774 144.965 30.3671Z" fill="#807FA6"/>
</g>
<path d="M229.016 12.7894L236.053 29.5604C237.169 32.1954 237.634 32.8774 238.874 32.9704V34.1484H230.256V32.9704C231.961 32.8774 232.736 32.5054 232.736 31.5444C232.736 31.1104 232.55 30.5834 232.271 29.9014L231.279 27.5454H222.94L221.948 30.1184C221.7 30.7694 221.576 31.2654 221.576 31.6374C221.576 32.5674 222.32 32.8774 224.118 32.9704V34.1484H217.329V32.9704C218.693 32.8774 219.065 32.3194 220.026 29.9944L226.102 15.0214L225.172 12.7894H229.016ZM227.001 17.1914L223.622 25.8404H230.597L227.001 17.1914ZM250.18 11.8284C253.001 11.8284 254.768 13.0374 254.768 14.7734C254.768 16.0134 253.993 16.7574 252.908 16.7574C252.04 16.7574 251.482 16.4164 251.11 15.5794C250.769 14.8354 250.738 13.8744 250.335 13.3164C250.149 13.2854 249.994 13.2544 249.839 13.2544C247.359 13.2544 245.902 15.1764 245.902 18.4004C245.902 18.7104 245.902 19.0514 245.933 19.4544H249.684V22.2134H246.026V30.3354C246.026 32.5984 246.522 33.0014 249.684 33.1254V34.1484H239.981V33.1254C242.461 33.0014 242.802 32.6604 242.802 30.4904V22.2134H239.981V21.0664L242.802 19.6404C243.019 14.7734 245.747 11.8284 250.18 11.8284ZM260.784 19.0824C262.117 19.0824 263.14 19.9504 263.14 21.3144C263.14 22.6784 262.241 23.5464 261.125 23.5464C259.792 23.5464 259.699 22.0584 258.831 21.7174C258.118 22.4924 257.312 23.7634 256.63 25.9954V30.9554C256.63 32.5674 257.157 32.9704 259.141 33.1254V34.1484H251.453V33.1254C253.127 32.9704 253.406 32.6604 253.406 30.9554V23.6084C253.406 21.8724 253.034 21.4384 251.453 21.4384V20.5084L255.638 19.2684H256.63V23.6394C257.374 21.5314 258.8 19.0824 260.784 19.0824ZM267.885 17.2534C266.552 17.2534 265.591 16.3234 265.591 14.9594C265.591 13.5954 266.552 12.6654 267.885 12.6654C269.218 12.6654 270.179 13.5954 270.179 14.9594C270.179 16.3234 269.218 17.2534 267.885 17.2534ZM271.667 34.1484H264.289V33.1254C266.025 32.9704 266.397 32.5984 266.397 30.9554V23.6084C266.397 21.8724 265.994 21.4384 264.289 21.4384V20.5084L268.598 19.2684H269.621V30.9554C269.621 32.5984 269.931 32.9704 271.667 33.1254V34.1484ZM280.232 34.5824C276.109 34.5824 273.474 31.6684 273.474 27.1424C273.474 22.2754 276.45 19.0824 280.79 19.0824C283.859 19.0824 285.874 20.7254 285.874 23.0504C285.874 24.5384 285.006 25.4994 283.704 25.4994C282.557 25.4994 281.72 24.7864 281.72 23.6704C281.72 22.4614 282.557 22.0274 282.898 21.1594C282.433 20.8184 281.72 20.6324 280.976 20.6324C278.248 20.6324 276.512 22.6784 276.512 25.8404C276.512 29.0644 278.279 31.1414 281.1 31.1414C282.805 31.1414 284.169 30.3044 284.82 28.9094L285.998 29.3124C285.285 32.8464 283.456 34.5824 280.232 34.5824ZM301.547 30.6764L302.508 30.9244C302.167 33.2184 301.485 34.4584 299.439 34.4584C297.889 34.4584 296.773 33.6214 296.494 31.8854C295.595 33.6524 294.076 34.5824 292.371 34.5824C290.17 34.5824 288.744 33.3424 288.744 31.2964C288.744 29.2504 290.139 28.0724 292.898 27.1734L296.401 26.0884V24.6624C296.401 22.1824 295.347 20.9424 293.301 20.9424C292.278 20.9424 291.348 21.2524 290.79 21.6244C291.007 22.9574 292.278 23.1744 292.278 24.4764C292.278 25.4994 291.41 26.3364 290.294 26.3364C289.054 26.3364 288.248 25.3754 288.248 24.0424C288.248 21.3454 291.379 19.0824 294.572 19.0824C297.548 19.0824 299.625 20.6324 299.625 24.1664V30.8004C299.625 31.6684 299.873 32.0404 300.431 32.0404C300.958 32.0404 301.268 31.6374 301.547 30.6764ZM293.735 32.1334C294.634 32.1334 295.595 31.5754 296.401 30.3974V27.5454L294.355 28.2894C292.805 28.8474 291.999 29.3744 291.999 30.4904C291.999 31.5134 292.681 32.1334 293.735 32.1334ZM313.016 34.1484H303.716V32.9704C306.289 32.8464 306.568 32.5984 306.568 30.3664V16.8504C306.568 14.6184 306.289 14.3704 303.716 14.2464V13.0684H312.861C320.735 13.0684 325.261 16.9434 325.261 23.6704C325.261 30.2114 320.704 34.1484 313.016 34.1484ZM313.45 32.7844C318.007 32.7844 320.952 29.2194 320.952 23.7014C320.952 17.9044 317.666 14.4944 312.086 14.4944H310.257V29.4984C310.257 31.9164 311.125 32.7844 313.45 32.7844ZM337.819 12.7894L344.856 29.5604C345.972 32.1954 346.437 32.8774 347.677 32.9704V34.1484H339.059V32.9704C340.764 32.8774 341.539 32.5054 341.539 31.5444C341.539 31.1104 341.353 30.5834 341.074 29.9014L340.082 27.5454H331.743L330.751 30.1184C330.503 30.7694 330.379 31.2654 330.379 31.6374C330.379 32.5674 331.123 32.8774 332.921 32.9704V34.1484H326.132V32.9704C327.496 32.8774 327.868 32.3194 328.829 29.9944L334.905 15.0214L333.975 12.7894H337.819ZM335.804 17.1914L332.425 25.8404H339.4L335.804 17.1914ZM359.749 34.5824C353.177 34.5824 348.496 30.1804 348.496 23.6084C348.496 17.0364 353.177 12.6344 359.749 12.6344C366.321 12.6344 370.971 17.0364 370.971 23.6084C370.971 30.1804 366.321 34.5824 359.749 34.5824ZM359.749 32.9394C363.965 32.9394 366.662 29.3434 366.662 23.6084C366.662 17.8734 363.965 14.2774 359.749 14.2774C355.533 14.2774 352.805 17.8734 352.805 23.6084C352.805 29.3434 355.533 32.9394 359.749 32.9394Z" fill="#807FA6"/>
<defs>
<clipPath id="clip0_399_3699">
<rect width="204" height="47" fill="white" transform="translate(0.925781 0.148438)"/>
</clipPath>
</defs>
</svg>
