<svg width="165" height="50" viewBox="0 0 165 50" fill="none" xmlns="http://www.w3.org/2000/svg">
<g clip-path="url(#clip0_400_3804)">
<mask id="mask0_400_3804" style="mask-type:luminance" maskUnits="userSpaceOnUse" x="0" y="0" width="164" height="50">
<path d="M163.591 0.148438H0.53125V49.0511H163.591V0.148438Z" fill="white"/>
</mask>
<g mask="url(#mask0_400_3804)">
<path d="M75.7653 33.6747C75.6706 33.6747 75.583 33.7203 75.5305 33.7973C74.7422 34.9398 72.5665 37.1056 68.8809 37.1056C66.6808 37.1056 64.8449 36.6009 63.0336 35.5917C61.2223 34.5824 59.7894 33.1385 58.7349 31.2671C57.6804 29.3955 57.1514 27.2123 57.1514 24.7135C57.1514 22.2148 57.6875 20.1295 58.7559 18.2721C59.8245 16.4148 61.2645 14.9884 63.0792 13.9931C64.8905 12.9978 66.8524 12.5001 68.9616 12.5001C72.0201 12.5001 73.8593 13.6636 75.3028 15.3879C75.3588 15.4545 75.4429 15.4931 75.527 15.4931C75.6882 15.4931 75.8213 15.3598 75.8213 15.1987V7.20473C75.8213 6.93839 76.0385 6.72461 76.3012 6.72461H82.7792C83.0454 6.72461 83.2591 6.94189 83.2591 7.20473V36.0402C83.2591 36.3067 83.0419 36.5204 82.7792 36.5204H76.522C76.2557 36.5204 76.0419 36.3031 76.0419 36.0402V33.948C76.0419 33.7939 75.9159 33.6677 75.7617 33.6677L75.7653 33.6747ZM70.5661 31.0008C72.1707 31.0008 73.5231 30.4224 74.6196 29.2625C75.7197 28.1025 76.2697 26.6024 76.2697 24.7591C76.2697 22.9156 75.7197 21.3807 74.6196 20.2347C73.5195 19.0922 72.1707 18.5174 70.5661 18.5174C68.9616 18.5174 67.5216 19.0887 66.4215 20.2347C65.3214 21.3807 64.7714 22.8877 64.7714 24.7591C64.7714 26.6305 65.3214 28.0639 66.4215 29.238C67.5216 30.412 68.902 30.9972 70.5661 30.9972V31.0008Z" fill="#807FA6"/>
<path d="M87.5855 6.72754H94.3297C94.596 6.72754 94.8096 6.94482 94.8096 7.20767V10.7262C94.8096 10.9926 94.5924 11.2064 94.3297 11.2064H87.5855C87.3192 11.2064 87.1055 10.9891 87.1055 10.7262V7.20767C87.1055 6.94132 87.3228 6.72754 87.5855 6.72754ZM87.7186 13.26H94.2421C94.5083 13.26 94.7221 13.4773 94.7221 13.7401V36.0432C94.7221 36.3095 94.5049 36.5233 94.2421 36.5233H87.7186C87.4523 36.5233 87.2387 36.306 87.2387 36.0432V13.7401C87.2387 13.4738 87.4559 13.26 87.7186 13.26Z" fill="#807FA6"/>
<path d="M97.5569 13.2607H104.476C104.676 13.2607 104.855 13.3834 104.928 13.5726L110.779 29.0137C110.874 29.2626 111.224 29.2626 111.319 29.0137L117.169 13.5726C117.239 13.3869 117.418 13.2607 117.621 13.2607H124.362C124.705 13.2607 124.94 13.6112 124.807 13.9301L115.453 36.2332C115.379 36.4118 115.204 36.5276 115.008 36.5276H106.869C106.677 36.5276 106.501 36.4118 106.424 36.2332L97.1121 13.9301C96.9789 13.6112 97.2137 13.2642 97.5569 13.2642V13.2607Z" fill="#807FA6"/>
<path d="M126.299 13.2607H133.219C133.419 13.2607 133.597 13.3834 133.67 13.5726L139.521 29.0137C139.615 29.2626 139.966 29.2626 140.06 29.0137L145.911 13.5726C145.981 13.3869 146.16 13.2607 146.364 13.2607H153.105C153.448 13.2607 153.682 13.6112 153.548 13.9301L144.195 36.2332C144.122 36.4118 143.946 36.5276 143.75 36.5276H135.612C135.418 36.5276 135.244 36.4118 135.167 36.2332L125.854 13.9301C125.721 13.6112 125.956 13.2642 126.299 13.2642V13.2607Z" fill="#807FA6"/>
<path d="M156.338 6.72754H163.083C163.349 6.72754 163.562 6.94482 163.562 7.20767V10.7262C163.562 10.9926 163.345 11.2064 163.083 11.2064H156.338C156.072 11.2064 155.858 10.9891 155.858 10.7262V7.20767C155.858 6.94132 156.076 6.72754 156.338 6.72754ZM156.472 13.26H162.995C163.261 13.26 163.475 13.4773 163.475 13.7401V36.0432C163.475 36.3095 163.257 36.5233 162.995 36.5233H156.472C156.205 36.5233 155.991 36.306 155.991 36.0432V13.7401C155.991 13.4738 156.208 13.26 156.472 13.26Z" fill="#807FA6"/>
<path d="M37.3184 0.148438H12.6821C5.9835 0.148438 0.556641 5.577 0.556641 12.2777V36.9217C0.556641 43.619 5.9835 49.0511 12.6821 49.0511H37.3184C44.0135 49.0511 49.4439 43.6226 49.4439 36.9217V12.2777C49.4403 5.577 44.0135 0.148438 37.3184 0.148438ZM28.1779 12.6422H36.4425C36.7299 12.6422 36.9645 12.877 36.9645 13.1644V21.4317L36.975 21.4421C36.975 21.9013 36.4039 22.1361 36.0747 21.8101L27.81 13.5429C27.4736 13.2064 27.7084 12.6422 28.1779 12.6422ZM21.8226 36.5609H13.558C13.2707 36.5609 13.0359 36.3261 13.0359 36.0387V27.7713L13.0254 27.7609C13.0254 27.3017 13.5965 27.0669 13.9258 27.3928L22.1905 35.6602C22.5267 35.9966 22.2921 36.5609 21.8226 36.5609ZM38.9755 31.0341L31.4361 38.576C30.7949 39.2173 29.7509 39.2173 29.1098 38.576L11.032 20.4924C10.3908 19.8511 10.3908 18.8067 11.032 18.1653L18.5714 10.6236C19.2125 9.98223 20.253 9.98223 20.8977 10.6236L38.9755 28.7071C39.6166 29.3485 39.6166 30.3893 38.9755 31.0341Z" fill="#807FA6"/>
</g>
</g>
<defs>
<clipPath id="clip0_400_3804">
<rect width="164.216" height="49" fill="white" transform="translate(0.53125 0.148438)"/>
</clipPath>
</defs>
</svg>
