<svg width="214" height="48" viewBox="0 0 214 48" fill="none" xmlns="http://www.w3.org/2000/svg">
<g clip-path="url(#clip0_398_3670)">
<path d="M174.341 17.9356V7.7558H160.853V-0.03125H150.707V7.7558H143.542V17.9356H150.696V32.7833C150.696 41.1685 157.031 47.161 165.388 47.161H171.946V36.9813H167.773C163.589 36.9813 160.853 34.5778 160.853 30.3906V17.9356H174.341ZM203.704 36.9813V47.161H188.906C180.548 47.161 174.341 41.1792 174.341 32.7833V17.9356H184.487V30.3906C184.487 34.5778 187.106 36.9813 191.29 36.9813H203.704ZM184.487 17.9356V7.7558H199.286C207.643 7.7558 213.85 13.7376 213.85 22.1228V36.9706H203.704V24.5369C203.704 20.339 201.074 17.9463 196.89 17.9463H184.487V17.9356Z" fill="#807FA6"/>
<path d="M116.225 46.3067H105.706V7.76672H116.235V12.1676C118.237 9.0699 122.229 6.92285 127.222 6.92285C136.516 6.92285 142.052 13.7058 142.052 23.7253V46.3067H131.523V25.4985C131.523 19.944 129.138 16.5579 124.763 16.5579C119.919 16.5579 116.235 20.1042 116.235 27.5067V46.3067H116.225Z" fill="#807FA6"/>
<path fill-rule="evenodd" clip-rule="evenodd" d="M91.3438 33.7449H102.331C100.02 41.5319 92.4191 47.1613 82.6565 47.1613C70.9031 47.1613 62.5352 38.6799 62.5352 26.9726C62.5352 15.479 71.0521 6.92285 82.7417 6.92285C94.0267 6.92285 103.331 15.0197 102.788 29.5042H72.83C73.2878 34.0547 76.6627 37.9856 83.1995 37.9856C86.883 37.9856 90.1195 36.3726 91.3438 33.7449ZM82.4329 15.479C86.042 15.479 89.9598 17.4017 91.2693 22.5717H73.2133C74.2141 18.331 77.5889 15.479 82.4329 15.479Z" fill="#807FA6"/>
<path d="M0.925781 46.3067H11.4549V27.5067C11.4549 20.1042 14.6062 16.5578 19.1308 16.5578C23.2828 16.5578 25.1246 20.0294 25.1246 25.7335V46.3067H35.6537V27.5067C35.6537 20.1042 38.805 16.5578 43.3296 16.5578C47.4817 16.5578 49.3235 20.0294 49.3235 25.7335V46.3067H59.8526V23.9603C59.8526 13.5455 54.6359 6.92279 45.4802 6.92279C41.1152 6.92279 35.9625 9.23006 33.5777 14.0155C31.2675 9.53984 27.2752 6.91211 21.6646 6.91211C16.9803 6.91211 13.5203 9.15529 11.4442 12.1462V7.76666H0.925781V46.296V46.3067Z" fill="#807FA6"/>
</g>
<defs>
<clipPath id="clip0_398_3670">
<rect width="212.924" height="47" fill="white" transform="translate(0.925781 0.148438)"/>
</clipPath>
</defs>
</svg>
